<svg width="416" height="269" viewBox="0 0 416 269" fill="none" xmlns="http://www.w3.org/2000/svg">
<path d="M366.439 225.636C366.439 184.142 349.745 144.348 320.03 115.008C290.315 85.6678 250.013 69.1846 207.989 69.1846C165.966 69.1846 125.664 85.6678 95.9488 115.008C66.2338 144.348 49.54 184.142 49.54 225.636L366.439 225.636Z" fill="#F8F8F8"/>
<path d="M199.372 12.064H225.275C227.3 12.064 229.242 12.7903 230.674 14.0832C232.106 15.3762 232.911 17.1297 232.911 18.9582V29.5772C232.911 31.4056 232.106 33.1592 230.674 34.4521C229.242 35.745 227.3 36.4714 225.275 36.4714L225.067 44.9302C225.049 45.6737 224.105 45.9793 223.654 45.3874L216.87 36.4714H199.354C197.329 36.4714 195.386 35.745 193.954 34.4521C192.522 33.1592 191.718 31.4056 191.718 29.5772V18.9582C191.718 18.0514 191.916 17.1536 192.301 16.3161C192.686 15.4786 193.25 14.7179 193.961 14.0775C194.672 13.4371 195.516 12.9296 196.444 12.5841C197.373 12.2386 198.368 12.0618 199.372 12.064Z" fill="#5974FF"/>
<path d="M204.812 0H179.644C177.679 0.0139643 175.797 0.800019 174.407 2.18851C173.016 3.57701 172.227 5.45659 172.21 7.42156V18.8854C172.227 20.8504 173.016 22.7299 174.407 24.1184C175.797 25.5069 177.679 26.293 179.644 26.307L179.838 35.3686C179.854 36.133 180.841 36.4275 181.273 35.7969L187.784 26.307H204.812C206.781 26.307 208.669 25.5251 210.061 24.1332C211.453 22.7414 212.235 20.8537 212.235 18.8854V7.42156C212.235 5.45324 211.453 3.56554 210.061 2.17373C208.669 0.781918 206.781 0 204.812 0Z" fill="#C9D1FF"/>
<path d="M131.785 121.655C97.7474 127.133 87.3758 92.2912 103.125 71.543C103.125 71.543 123.869 80.9361 131.785 81.7222C135.957 82.1364 133.661 97.4764 134.624 99.7292L141.539 95.8149C142.04 87.9826 143.253 86.9285 145.38 85.2423C147.359 83.6737 152.679 86.028 147.685 95.8149C144.311 102.428 142.481 99.8675 144.17 121.655C145.808 142.791 154.206 148.77 163.776 148.196C157.021 158.899 148.899 173.487 127.281 172.111C105.664 170.735 111.518 151.279 117.148 141.723C122.027 141.149 131.785 138.877 131.785 133.004V121.655Z" fill="#161485"/>
<path d="M132.602 121.158C97.7633 126.659 87.1476 91.6725 103.268 70.8385C103.268 70.8385 123.452 68.4001 133.932 76.6515C133.933 76.6519 133.934 76.6524 133.935 76.6528L145.278 74.2948C145.792 66.4301 144.34 86.2876 146.517 84.5945C148.542 83.0193 153.987 85.3834 148.876 95.2108C145.422 101.851 144.428 101.164 146.157 123.042C147.834 144.265 165.349 139.941 168.888 145.052C161.973 155.799 150.118 173.204 127.992 171.822C105.866 170.441 111.858 150.904 117.62 141.309C122.614 140.733 132.602 138.451 132.602 132.554V121.158Z" fill="white"/>
<path d="M146.882 56.0155C138.853 48.9958 132.387 47.1713 122.101 47.1713C111.815 47.1713 103.481 53.0568 97.1143 53.5686C90.7477 54.0803 86.3487 48.1788 82.4295 56.0155C78.5104 63.8522 93.2112 77.0786 103.001 79.0298C112.791 80.9809 126.5 78.0542 130.419 77.5584C134.174 77.301 137.942 77.301 141.697 77.5584C141.697 77.5584 138.753 86.8665 141.697 89.8092C144.64 92.752 145.12 94.7031 145.12 96.6543C145.288 98.8078 145.614 100.946 146.096 103.052L146.882 108.101L150.586 101.418C155.697 95.1287 157.196 89.1644 158.349 83.4759C159.805 74.6636 154.911 63.0353 146.882 56.0155Z" fill="#3957F1"/>
<path fill-rule="evenodd" clip-rule="evenodd" d="M146.582 103.13C147.7 100.805 148.532 98.3404 149.049 95.7884C150.505 86.9762 143.162 78.1959 143.162 78.1959L133.852 68.7919C133.852 68.7919 123.087 59.4838 112.801 59.4838C106.745 59.4838 101.365 61.5241 96.6656 63.3066C93.3832 64.5515 90.4325 65.6707 87.8144 65.8811C86.6415 65.9754 85.5354 65.852 84.4868 65.637C88.5691 71.8113 96.9362 77.7704 103.257 79.0301C111.423 80.6577 122.317 78.891 127.98 77.9725C129.106 77.79 130.025 77.6409 130.674 77.5587C134.429 77.3013 138.197 77.3013 141.952 77.5587C141.952 77.5587 139.009 86.8668 141.952 89.8095C144.895 92.7523 145.375 94.7034 145.375 96.6546C145.543 98.8081 145.869 100.946 146.351 103.052L146.582 103.13Z" fill="#04146C"/>
<path d="M181.076 152.913C175.508 136.327 159.805 136.01 150.408 136.01C150.408 136.01 148.564 134.218 125.638 137.19C104.407 139.941 102.048 151.024 102.048 155.665V211.872V226.576L121.254 229.656C134.239 229.656 130.521 229.444 153.126 230.891C175.731 232.339 190.468 227.112 197.196 223.896C192.868 198.782 185.188 165.164 181.076 152.913Z" fill="#3957F1"/>
<path d="M118.27 172.313C120.568 203.982 119.781 216.291 119.781 230.098L116.243 229.705C118.663 208.448 117.483 206.687 118.27 172.313Z" fill="white"/>
<path d="M178.501 221.262L146.261 228.781L173.32 217.214L169.29 188.296L173.32 178.465L178.501 221.262Z" fill="white"/>
<path d="M144.08 159.476C136.107 164.072 129.177 150.948 130.357 136.404L139.793 135.209L150.185 135.209C149.657 142.737 152.053 154.881 144.08 159.476Z" fill="white"/>
<path d="M153.612 90.4057C145.466 90.75 143.183 75.9652 143.183 75.9652C143.183 75.9652 129.084 74.3212 126.557 63.8685C126.557 63.8685 113.689 72.9882 103.071 69.6891C92.453 66.39 94.0823 54.4489 95.1241 51.8607C96.166 49.2725 102.173 53.7046 102.173 53.7046C102.173 53.7046 102.517 46.9732 104.268 46.2067C106.019 45.4402 108.158 49.4058 108.158 49.4058C108.158 49.4058 121.392 44.2517 133.651 44.0295C145.909 43.8074 152.493 55.8374 152.493 55.8374C152.493 55.8374 159.143 56.9482 161.415 61.3914C163.687 65.8346 158.81 90.2279 153.612 90.4057Z" fill="#3957F1"/>
<path d="M144.578 66.5071C143.845 63.8331 142.421 61.3991 140.449 59.4501C138.488 57.5508 135.961 56.3414 133.251 56.0047C132.58 55.8868 131.902 55.8167 131.222 55.7948L129.166 55.856C127.802 55.961 126.446 56.267 125.09 56.4944C123.77 56.8879 122.405 57.194 121.102 57.6487C119.799 58.1034 118.478 58.6368 117.166 59.1003C118.417 58.4707 119.685 57.8848 120.953 57.2727C122.222 56.6605 123.577 56.3457 124.933 55.8735C127.672 55.0802 130.542 54.8453 133.373 55.1827C136.243 55.5717 138.896 56.9183 140.904 59.0041C142.851 61.0816 144.131 63.6951 144.578 66.5071Z" fill="#BDBBBB"/>
<path d="M120.947 98.6963C122.691 98.5289 124.349 97.9111 125.733 96.9131C127.117 95.9151 128.171 94.577 128.775 93.0511C129.38 91.5251 129.51 89.8726 129.151 88.2814C128.792 86.6902 127.959 85.2244 126.746 84.0505C125.534 82.8767 123.99 82.042 122.291 81.6414C120.591 81.2408 118.805 81.2905 117.135 81.7846C115.465 82.2788 113.977 83.1977 112.843 84.4368C111.708 85.6758 110.971 87.1853 110.715 88.7936C110.358 91.0664 110.983 93.3783 112.456 95.2253C113.928 97.0724 116.129 98.3051 118.577 98.6547C119.362 98.7602 120.158 98.7742 120.947 98.6963ZM119.15 82.577C120.831 82.418 122.523 82.7497 123.991 83.5258C125.458 84.302 126.628 85.4837 127.336 86.906C128.044 88.3283 128.255 89.9201 127.94 91.4591C127.624 92.998 126.799 94.4072 125.577 95.4899C124.356 96.5725 122.801 97.2745 121.129 97.4978C119.457 97.721 117.751 97.4545 116.25 96.7352C114.749 96.016 113.528 94.8801 112.757 93.4862C111.986 92.0922 111.705 90.5099 111.951 88.9602C112.219 87.3074 113.072 85.784 114.375 84.6288C115.678 83.4736 117.357 82.752 119.15 82.577Z" fill="#0A2FF1"/>
<path d="M99.4502 98.3124C103.022 97.9792 105.874 94.2826 105.942 89.7529C106.018 87.5858 105.358 85.4512 104.055 83.6509C103.547 82.8485 102.824 82.181 101.957 81.7128C101.09 81.2446 100.107 80.9915 99.1038 80.9779C98.1004 80.9643 97.1101 81.1906 96.2284 81.6351C95.3468 82.0796 94.6036 82.7272 94.0705 83.5155C92.7195 85.2837 91.9971 87.3986 92.004 89.5655C91.9254 94.3555 94.9914 98.2916 98.8325 98.3436C99.0388 98.3439 99.2451 98.3335 99.4502 98.3124ZM98.6079 82.1514H99.0908C99.8884 82.1979 100.662 82.4207 101.348 82.8011C102.034 83.1815 102.612 83.7085 103.033 84.3382C104.183 85.9378 104.765 87.8313 104.695 89.7529C104.628 93.9181 102.022 97.2399 98.8549 97.1982C95.6878 97.1566 93.1832 93.7515 93.2394 89.6071C93.2263 87.684 93.8625 85.8052 95.0588 84.234C95.4601 83.6758 95.9834 83.202 96.5948 82.8432C97.2061 82.4845 97.892 82.2488 98.6079 82.1514Z" fill="#0A2FF1"/>
<path d="M111.018 89.804L111.837 88.9189C110.434 87.7943 107.165 86.2636 104.852 88.5024L105.75 89.3146C107.828 87.3049 110.883 89.6999 111.018 89.804Z" fill="#0A2FF1"/>
<path d="M152.72 92.5847L153.843 92.0641C153.584 91.5851 151.215 87.3158 148.429 86.8576C145.824 86.4411 129.011 87.6802 128.303 87.7323L128.404 88.8881C133.223 88.5341 146.194 87.6698 148.205 88.003C150.035 88.305 152.057 91.4185 152.72 92.5847Z" fill="#0A2FF1"/>
<path d="M130.546 136.09C121.209 145.448 114.114 161.92 131.622 151.079L130.546 136.09Z" fill="#04146C"/>
<path d="M150.102 134.852C158.028 144.453 168.175 159.955 149.771 150.716L150.102 134.852Z" fill="#04146C"/>
<path d="M306.866 80.5469C315.164 67.1899 320.695 74.9815 322.424 80.5469V93.213L294.19 108.182L282.09 138.696C288.236 151.938 301.796 179.688 306.866 184.754C313.205 191.087 291.583 149.341 310.323 154.197C334.197 160.382 341.546 124.834 340.394 113.32C339.837 107.758 335.423 80.5469 327.718 66.1099C323.108 57.4737 317.922 51.7935 310.324 49.4572C297.948 45.6519 264.335 43.0803 258.465 71.9107C250.641 110.341 220.962 138.696 249.93 143.086C278.897 147.477 230.398 154.197 249.93 154.197C281.383 154.197 282.09 108.758 275.751 104.727C269.413 100.697 271.142 76.5166 282.09 89.1827C293.037 101.849 296.495 97.2431 306.866 80.5469Z" fill="#3957F1"/>
<path d="M330.449 112.281C330.449 92.2744 328.302 69.9877 315.969 72.2138L311.189 86.8717L277.67 117.964L280.049 153.395L309.61 170.425C312.263 169.865 292.823 156.166 301.17 153.395C311.603 149.931 311.193 155.679 320.828 147.018C330.449 138.369 330.45 130.507 330.449 112.281Z" fill="#04146C"/>
<path d="M288.452 123.438C328.87 137.256 329.529 91.7471 320.227 75.3819C311.008 63.8674 304.444 84.0395 295.45 89.1997C286.89 94.1107 283.843 88.8944 279.809 84.8642C275.776 80.8341 270.014 84.8642 270.014 92.3487C270.014 99.8333 277.505 101.56 275.776 123.438C274.393 140.94 254.456 144.165 244.661 143.589C251.575 154.336 270.936 175.484 293.062 174.103C315.188 172.721 309.196 153.184 303.434 143.589C298.44 143.013 288.452 140.94 288.452 137.256L288.452 123.438Z" fill="#F8F8F8"/>
<path d="M256.844 143.383C282.197 174.242 296.986 156.241 301.212 143.383C309.97 139.698 313.696 144.918 314.465 147.989L318.498 208.441L318.498 232.046H301.212C299.483 231.47 290.379 230.664 267.792 232.046C245.205 233.428 226.113 227.632 219.391 224.561C221.504 203.643 227.112 159.043 232.644 147.989C238.175 136.935 251.082 140.312 256.844 143.383Z" fill="#8A9AF1"/>
<path d="M297.179 231.345H308.703C303.632 231.345 303.901 215.992 304.669 208.315C310.662 197.722 304.861 180.872 301.212 173.771C309.048 193.577 305.245 203.71 297.179 211.77V231.345Z" fill="#0A2FF1"/>
<path d="M240.711 216.376L272.978 223.86L245.896 212.346L249.93 183.559L245.896 173.771L240.711 216.376Z" fill="#0A2FF1"/>
<path d="M396.801 235.552H235.905C235.905 232.33 238.517 229.718 241.739 229.718H275.943L291.316 146.449C291.592 144.956 292.894 143.872 294.412 143.872H411.454C413.424 143.872 414.91 145.662 414.548 147.599L398.348 234.267C398.208 235.012 397.558 235.552 396.801 235.552Z" fill="#04146C"/>
<rect x="44.0356" y="261.014" width="338.13" height="7.0757" fill="#0A2FF1"/>
<path d="M415.192 82.5497C415.192 75.2519 412.251 68.2529 407.016 63.0926C401.781 57.9322 394.68 55.0331 387.277 55.0331C379.873 55.0331 372.773 57.9322 367.538 63.0926C362.302 68.2529 359.361 75.2519 359.361 82.5497L415.192 82.5497Z" fill="#3FFFF3"/>
<ellipse cx="22.8041" cy="55.0331" rx="22.8041" ry="22.7994" fill="#3FFFF3"/>
<path d="M50.7191 50.316C50.7191 62.6904 40.6856 72.722 28.3085 72.722C15.9314 72.722 5.89787 62.6904 5.89787 50.316C5.89787 37.9416 15.9314 27.91 28.3085 27.91C40.6856 27.91 50.7191 37.9416 50.7191 50.316Z" stroke="#0A2FF1" stroke-width="0.786957"/>
<path d="M41.9488 232.185H187.151C187.151 229.275 184.792 226.915 181.881 226.915H150.986L137.147 151.952C136.871 150.459 135.569 149.376 134.051 149.376H28.9538C26.9836 149.376 25.4976 151.165 25.8596 153.102L40.4017 230.9C40.5409 231.645 41.1911 232.185 41.9488 232.185Z" fill="#04146C"/>
<ellipse cx="85.8908" cy="178.846" rx="3.90646" ry="3.90567" fill="white"/>
</svg>
